<svg id="Layer_1" data-name="Layer 1" xmlns="http://www.w3.org/2000/svg" xmlns:xlink="http://www.w3.org/1999/xlink" viewBox="0 0 930 930"><defs><style>.cls-1{fill:#aaa;}.cls-2{fill:url(#linear-gradient);}.cls-3{fill:none;stroke:#231f20;stroke-miterlimit:10;}.cls-4{fill:#4cd964;}.cls-5{fill:#fff;}</style><linearGradient id="linear-gradient" x1="229.96" y1="61.56" x2="690.04" y2="858.44" gradientUnits="userSpaceOnUse"><stop offset="0" stop-color="#fa0"/><stop offset="1" stop-color="#ff8200"/></linearGradient></defs><title>uf</title><circle class="cls-1" cx="470" cy="470" r="460"/><circle class="cls-2" cx="460" cy="460" r="460"/><path class="cls-3" d="M422.36,410.91" transform="translate(-52 -52)"/><path class="cls-3" d="M422.36,360.89" transform="translate(-52 -52)"/><path class="cls-3" d="M601.35,410.28" transform="translate(-52 -52)"/><path class="cls-3" d="M601.64,360.88" transform="translate(-52 -52)"/><path class="cls-3" d="M601.64,410.91" transform="translate(-52 -52)"/><path class="cls-3" d="M601.64,360.89" transform="translate(-52 -52)"/><path class="cls-3" d="M422.36,360.89" transform="translate(-52 -52)"/><path class="cls-4" d="M600.58,234.64c-5.45-3.45-13.79-5.51-18.4.4l-49.44,63.39-7.06,9.05a7.34,7.34,0,0,0-.66,1l2.8-81.77,0.46-13.55c0.25-7.19-8.61-13.45-14.83-14.69-6.9-1.37-12.4,1.89-12.64,9l-3.25,95-0.35,10.12-0.08-.12-49.44-63.39-7.06-9.05c-4.33-5.55-11.71-10.63-19.13-8.36-6.56,2-7.71,10-3.74,15.09l49.44,63.39,7.06,9.05c0.5,0.64,1,1.28,1.63,1.9l1.18-.56a86.67,86.67,0,0,1,20.13-6.35l2-.34a86.72,86.72,0,0,1,51.49,7.53c0.5,0.24,1,.5,1.49.75l47.78-61.26,7.06-9.05C611.41,246.23,605.43,237.71,600.58,234.64Z" transform="translate(-52 -52)"/><path class="cls-5" d="M522.82,724.87c-3.22,0-3.22-5,0-5a136.13,136.13,0,0,0,16.83-1.09l1.57-5.49c-4.14.37-8.3,0.55-12.4,0.57-3.22,0-3.22-5,0-5,4.6,0,9.25-.25,13.87-0.73,3.08-10.88,6.31-22.43,9.6-34.43a124,124,0,0,1-28.46,3.17c-3.22,0-3.22-5,0-5a114.61,114.61,0,0,0,30-3.73c4-14.52,8-29.63,11.93-45-4.65.47-9.31,0.68-13.91,0.71-3.22,0-3.22-5,0-5a139.09,139.09,0,0,0,15.24-.89q1.15-4.51,2.3-9a125.39,125.39,0,0,1-27.54,2.94c-3.22,0-3.22-5,0-5a116.17,116.17,0,0,0,28.92-3.44c3.48-13.9,6.85-27.86,10-41.62a143,143,0,0,1-16.95,1.06c-3.22,0-3.22-5,0-5A133.77,133.77,0,0,0,582,556.6c2.43-10.67,4.73-21.19,6.84-31.44-10.92,3.46-22.63,4.63-34,4.71-3.22,0-3.22-5,0-5,11.83-.08,23.93-1.38,35.14-5.36q0.8-3.93,1.55-7.81a116.08,116.08,0,0,1-24.69,2.63c-3.43,0-3.42-5.3,0-5.32a107.26,107.26,0,0,0,25.8-3c3.83-20.15,6.78-38.81,8.46-54.92-11.84,4.32-24.76,5.73-37.26,5.82-3.22,0-3.22-5,0-5,12.57-.08,25.44-1.54,37.24-6.14l0.55-.22c0.66-7.43,1-14.25,1-20.32a124,124,0,0,0-5-35.1,126.55,126.55,0,0,1-26.79,2.77c-3.22,0-3.22-5,0-5a121.78,121.78,0,0,0,25.27-2.56c-13.3-38.94-45.5-66.4-83.11-66.4-45.08,0-82.39,39.46-88.7,90.85a118.19,118.19,0,0,0,27.59,3.12c3.22,0,3.22,5,0,5a124.52,124.52,0,0,1-28.11-3.08q-0.42,5.14-.43,10.41h0A291.07,291.07,0,0,0,426,460.41a116.29,116.29,0,0,0,28.92,3.46c3.22,0,3.22,5,0,5a124.35,124.35,0,0,1-28.21-3.1c2.32,17,5.75,36.22,9.9,56.52a121.55,121.55,0,0,0,25.31,2.58c3.22,0,3.22,5,0,5a130.66,130.66,0,0,1-24.21-2.22q1.6,7.65,3.32,15.48c4.62,0.49,9.27.71,13.89,0.74,3.22,0,3.22,5,0,5-4.22,0-8.49-.21-12.76-0.61,3.16,14.19,6.58,28.7,10.14,43.23a116.72,116.72,0,0,0,28.62,3.38c3.22,0,3.22,5,0,5A125.84,125.84,0,0,1,453.61,597q2.54,10.25,5.15,20.45a131.38,131.38,0,0,0,19.12,1.42c3.22,0,3.22,5,0,5a141.51,141.51,0,0,1-17.77-1.17c5.89,22.86,11.93,45.22,17.67,65.85a123.39,123.39,0,0,0,24.1,2.32c3.22,0,3.22,5,0,5a133.28,133.28,0,0,1-22.6-1.92c16.14,57.75,29.49,100.66,29.49,100.66a4.36,4.36,0,0,0,8.42,0s8.91-28.64,21-70.6A145.87,145.87,0,0,1,522.82,724.87Z" transform="translate(-52 -52)"/></svg>